<?xml version="1.0" encoding="UTF-8" standalone="no"?>
<svg
   xmlns:dc="http://purl.org/dc/elements/1.1/"
   xmlns:cc="http://creativecommons.org/ns#"
   xmlns:rdf="http://www.w3.org/1999/02/22-rdf-syntax-ns#"
   xmlns:svg="http://www.w3.org/2000/svg"
   xmlns="http://www.w3.org/2000/svg"
   xmlns:sodipodi="http://sodipodi.sourceforge.net/DTD/sodipodi-0.dtd"
   xmlns:inkscape="http://www.inkscape.org/namespaces/inkscape"
   version="1.0"
   width="630px"
   height="691px"
   viewBox="0 0 6300 6910"
   preserveAspectRatio="xMidYMid meet"
   id="svg5">
  <metadata
     id="metadata11">
    <rdf:RDF>
      <cc:Work
         rdf:about="">
        <dc:format>image/svg+xml</dc:format>
        <dc:type
           rdf:resource="http://purl.org/dc/dcmitype/StillImage" />
        <dc:title />
      </cc:Work>
    </rdf:RDF>
  </metadata>
  <defs
     id="defs9" />
  <sodipodi:namedview
     pagecolor="#ffffff"
     bordercolor="#666666"
     borderopacity="1"
     objecttolerance="10"
     gridtolerance="10"
     guidetolerance="10"
     inkscape:pageopacity="0"
     inkscape:pageshadow="2"
     inkscape:window-width="1280"
     inkscape:window-height="969"
     id="namedview7"
     showgrid="false"
     inkscape:snap-grids="false"
     inkscape:snap-to-guides="false"
     inkscape:zoom="3.7568741"
     inkscape:cx="47.659184"
     inkscape:cy="341.39756"
     inkscape:window-x="0"
     inkscape:window-y="0"
     inkscape:window-maximized="1"
     inkscape:current-layer="svg5"
     inkscape:document-rotation="0" />
  <path
     style="fill:#f0db78;fill-opacity:1;fill-rule:nonzero;stroke:#f0db78;stroke-width:6;stroke-miterlimit:4;stroke-dasharray:none;stroke-opacity:1;paint-order:normal"
     d="m 297.56393,659.22492 c -4.85235,-2.49162 -8.65478,-5.51881 -12.30496,-9.79624 -17.27519,-20.24376 -34.30304,-44.67051 -45.87907,-65.81438 -10.68939,-19.52439 -17.51319,-33.76412 -16.58809,-34.61559 0.92062,-0.84737 25.48486,-4.45232 43.27752,-6.35126 10.9711,-1.17091 15.94603,-2.93763 17.15679,-6.09285 0.48916,-1.27471 -2.7291,-8.63755 -9.90656,-22.66457 -13.97491,-27.31142 -16.11307,-33.73593 -16.11307,-48.41483 0,-12.73914 1.28734,-17.1073 6.70842,-22.76275 6.10137,-6.36513 10.52469,-7.93174 20.90262,-7.40308 11.52431,0.58706 17.61771,3.51482 25.8729,12.43141 11.22816,12.12775 15.70765,26.58538 15.70754,50.69633 -4e-5,8.1983 -0.68013,19.43522 -1.51131,24.97093 -1.94834,12.97598 -1.50145,13.89116 6.783,13.89116 6.70836,0 58.14571,-3.83486 66.0792,-4.92647 5.45,-0.7499 11.70919,-3.06582 11.71734,-4.33545 0.003,-0.46908 1.21863,-6.56844 2.70138,-13.55414 3.19264,-15.04154 3.50911,-19.58815 1.4619,-21.00325 -0.90335,-0.62442 -7.79743,-0.83192 -17.21151,-0.51805 -8.6375,0.288 -15.70446,0.43994 -15.70437,0.33766 1.1e-4,-0.10232 0.71879,-3.94131 1.59707,-8.53117 2.18116,-11.39852 2.00354,-23.62729 -0.54908,-37.80332 -3.22111,-17.88859 -8.53568,-30.5599 -18.30357,-43.64049 -10.88552,-14.57728 -36.87156,-24.56613 -68.45415,-26.3133 -29.19623,-1.61515 -56.41318,6.3738 -70.8229,20.78855 -7.72578,7.72846 -11.18767,14.02735 -15.58791,28.36203 -2.64864,8.62848 -2.90211,10.94978 -2.89289,26.49257 0.0116,19.55431 1.23395,25.4256 9.59377,46.0818 5.4417,13.44584 5.37866,13.89241 -2.00695,14.218 -2.19597,0.0968 -4.56305,0.22392 -5.26019,0.28248 -2.0924,0.17576 -7.50998,-27.77886 -14.47399,-60.56045 -4.54536,-21.39634 -10.24701,-33.15337 -12.48825,-35.54023 -0.74756,-0.79613 -3.63489,-1.87266 -6.41628,-2.39228 -12.83986,-2.39875 -54.06307,-21.58108 -71.06723,-33.0696 -20.620172,-13.9316 -38.122444,-35.21996 -52.429242,-63.7707 -7.67665,-15.31956 -17.818668,-37.25243 -17.033727,-38.03737 0.524702,-0.5247 10.692756,9.43503 24.343326,21.89122 9.216652,8.41021 15.666304,12.86727 19.8227,13.69855 2.910798,0.58216 3.244413,0.38028 3.244413,-1.96333 0,-1.89895 -2.685109,-5.20589 -9.833754,-12.11113 -24.747039,-23.90442 -28.011207,-28.72795 -36.654688,-54.16539 -5.775943,-16.9984 -7.953136,-29.7047 -8.85699,-51.69023 -1.574439,-38.29702 1.289032,-74.19809 8.649049,-108.438365 3.23363,-15.043497 15.271932,-49.24125 17.361529,-49.207372 0.411793,0.0067 2.103564,9.529636 3.463391,15.232494 1.359827,5.702857 4.621988,18.98616 9.215204,32.747601 4.593216,13.76144 10.320904,29.332892 11.905976,34.603232 4.28086,14.23379 10.581344,29.60709 16.796522,40.98381 8.395181,15.36718 19.515031,25.66534 20.689181,19.16036 0.15733,-0.87167 -3.54982,-8.53211 -8.23812,-17.02321 C 87.981329,130.90339 79.547145,103.74891 77.603093,72.075151 L 76,57.5 88.688433,72.788688 c 17.047747,20.541362 28.571367,25.175489 60.019037,38.440852 21.29703,8.98359 32.71056,12.8793 52.25259,17.83508 19.4683,4.93709 24.43643,5.51797 26.44938,3.09251 1.87168,-2.25524 1.91331,-2.22084 -13.68254,-11.30746 -6.05318,-3.52677 -20.34426,-11.69806 -20.05371,-11.98861 0.29055,-0.29055 14.57979,5.94402 20.04962,7.68477 27.70791,8.81792 43.47091,11.67185 101.51064,18.37872 23.66285,2.7344 125.03164,4.94173 126.3915,2.75221 1.17893,-1.8982 -1.86025,-4.24082 -14.06407,-10.84071 -6.14873,-3.32526 -13.57512,-7.89242 -16.50308,-10.14926 -7.34774,-5.66352 -27.16573,-23.457939 -25.38288,-23.457939 3.07487,0 40.81327,15.514639 51.38143,21.232689 7.85183,4.24833 13.55357,8.33471 19.51635,13.98713 9.35957,8.87241 15.03617,12.76293 18.63417,12.77112 4.28583,0.01 2.69807,-3.80071 -5.07833,-12.18758 -12.44237,-13.41912 -20.15488,-27.96467 -24.7749,-46.234361 -3.66128,-14.478396 -3.53315,-16.908738 3.48282,-7.102831 9.86656,13.790043 25.08747,32.819042 65.72192,73.515592 21.04918,21.08135 40.43941,41.20447 43.0894,44.71802 2.64998,3.51356 7.13663,10.46083 9.97032,15.43837 5.85732,10.28871 7.72025,12.77658 9.56716,12.77658 2.16324,0 2.64173,-5.89533 0.99242,-12.22744 -1.60816,-6.17413 -1.56944,-20.59282 -0.29442,-26.16677 0.68098,-2.97699 0.50671,3.08818 1.27101,8.04983 0.45102,2.92797 2.6438,13.79568 4.87284,24.15047 3.22336,14.97382 5.07988,21.02409 9.07134,29.56287 7.15436,15.30504 7.98366,19.26693 7.99833,38.21079 0.007,8.98115 0.76187,22.39655 1.6776,29.81202 2.52982,20.48603 0.75593,51.44994 -4.39438,76.70559 -5.05514,24.78892 -8.62161,35.39795 -17.0445,50.70156 -14.44125,26.23843 -24.78024,40.46415 -45.80394,60.1925 -29.1142,27.32036 -41.05844,39.15132 -53.85019,53.76216 -23.85145,27.24334 -46.9493,47.39735 -89.78844,78.89583 -32.77937,24.10179 -29.25781,22.50999 -59.62404,26.95104 -21.28144,3.1124 -26.09566,2.90167 -34.70496,-1.51911 z"
     id="path2786"
     sodipodi:nodetypes="ssssssssssssssssssssssssssssssssssssssssssscssssssscsssssssssssssscsssssssssssssssssssss"
     transform="scale(10)" />
  <path
     style="fill:#262329;fill-opacity:1;fill-rule:nonzero;stroke:#262329;stroke-width:4.238;stroke-miterlimit:4;stroke-dasharray:none;stroke-opacity:1"
     d="m 208.95298,537.38394 c -0.98695,-1.04063 -5.55843,-9.95042 -5.55843,-10.83335 0,-0.60966 3.16824,-1.35667 12.77066,-3.01108 11.78531,-2.03049 15.14237,-3.00943 16.38009,-4.77653 1.44283,-2.05993 0.1122,-8.04484 -3.30412,-14.8613 -5.80737,-11.58725 -10.32851,-24.65959 -12.53795,-36.25206 -1.38231,-7.25265 -1.62944,-17.53274 -0.53845,-22.3978 0.41786,-1.86334 1.62995,-7.70747 2.69353,-12.98695 1.06359,-5.27949 2.26586,-10.48695 2.67171,-11.57216 0.40586,-1.0852 1.74939,-3.1837 2.98562,-4.66334 1.23624,-1.47963 3.24746,-4.14904 4.46937,-5.93201 5.39928,-7.8784 8.581,-10.62269 16.31933,-14.07568 4.98043,-2.22237 12.89519,-4.911 17.44971,-5.92763 5.14386,-1.14818 15.80077,-1.61494 31.36099,-1.37355 18.07955,0.28046 22.34192,0.86416 28.32966,3.87954 9.80013,4.93526 17.94602,12.55868 25.28838,23.6664 5.63004,8.51726 9.60596,16.68732 12.82327,26.35035 3.56648,10.71171 4.72317,18.62688 3.98083,27.24054 -0.54739,6.35153 -2.33396,17.06119 -3.64352,21.84123 -1.82281,6.65349 -2.10089,8.12298 -1.94825,10.29547 0.11373,1.61867 0.37579,2.39785 1.04661,3.11191 1.55348,1.6536 3.07056,1.85786 8.70542,1.17209 8.61226,-1.04813 21.92646,-2.15875 24.45292,-2.03978 2.13923,0.10073 2.42663,0.20548 2.52873,0.92172 0.17899,1.25568 -2.87722,14.24955 -3.64299,15.4886 -0.36235,0.58629 -5.37255,1.25586 -18.68179,2.49668 -21.54868,2.00899 -37.04418,3.00742 -37.62992,2.42463 -0.13197,-0.1313 0.018,-1.74055 0.33326,-3.57612 1.62954,-9.48783 2.45287,-24.45841 1.7466,-31.75812 -0.89228,-9.22212 -3.45161,-21.25333 -6.26656,-29.45862 -1.78203,-5.19442 -5.32724,-12.30736 -7.73802,-15.5252 -2.98252,-3.98096 -9.87682,-10.61904 -13.84129,-13.32689 -5.15427,-3.52051 -11.68149,-6.05609 -20.56858,-7.9901 -7.54034,-1.64094 -15.56068,-0.72356 -25.22038,2.88475 -13.07248,4.88313 -21.4324,11.82463 -25.77482,21.40162 -4.0752,8.98766 -3.91981,22.04473 0.44177,37.1208 2.67928,9.26109 8.45934,21.71761 16.32643,35.18479 4.39433,7.52239 6.35301,11.11654 6.05808,11.11654 -0.0864,0 -2.41845,0.33367 -5.1823,0.7415 -2.76385,0.40783 -12.98675,1.76457 -22.71756,3.01499 -9.73081,1.25043 -18.61281,2.44131 -19.73779,2.64641 -3.02321,0.55117 -3.55098,0.47568 -4.63025,-0.66229 z"
     id="path2784"
     transform="scale(10)" />
  <g
     id="layer101"
     fill="#060203"
     stroke="none">
    <path
       d="M2978 6692 c-44 -16 -90 -40 -109 -57 -80 -76 -236 -266 -352 -428 -104 -145 -147 -216 -231 -385 -57 -114 -114 -236 -126 -271 l-23 -63 -44 5 c-24 2 -49 0 -59 -7 -16 -12 -134 -270 -134 -293 0 -17 32 -33 66 -33 23 0 25 -3 20 -22 -4 -13 -46 -178 -93 -368 -96 -384 -130 -509 -147 -527 -6 -6 -64 -25 -129 -42 -159 -42 -431 -179 -673 -337 -187 -123 -360 -344 -508 -649 -51 -104 -105 -224 -120 -265 -15 -41 -53 -127 -83 -192 -32 -66 -53 -123 -50 -132 11 -29 57 -18 108 25 l49 40 -25 -55 c-61 -138 -95 -261 -122 -435 -25 -163 -27 -197 -26 -461 1 -305 8 -379 64 -695 33 -192 71 -341 124 -495 45 -129 124 -331 138 -348 14 -18 47 -15 53 5 4 10 12 32 19 48 7 17 32 104 55 195 23 91 45 167 47 170 11 10 -8 -165 -23 -228 -17 -66 -11 -91 19 -79 8 3 42 45 75 94 83 120 254 317 327 375 78 63 186 136 245 164 79 38 418 174 487 195 36 11 73 23 82 26 9 4 -13 -16 -48 -42 -123 -94 -251 -245 -237 -281 9 -24 36 -16 120 38 165 106 441 215 661 263 61 13 202 35 315 50 113 15 282 38 375 51 233 34 508 48 652 34 62 -6 173 -9 248 -5 74 3 135 4 135 2 0 -2 -26 -22 -58 -45 -68 -47 -226 -216 -336 -356 -64 -82 -76 -105 -74 -130 2 -20 9 -32 21 -34 10 -2 61 25 115 59 88 57 265 138 492 225 64 25 118 52 174 89 l29 19 -16 -31 c-49 -94 -105 -373 -110 -543 -2 -89 -1 -95 18 -95 13 0 28 15 44 45 110 205 213 343 424 564 78 82 143 152 145 157 2 4 128 126 280 271 152 144 310 304 351 354 l76 92 12 -111 c13 -119 31 -201 62 -282 20 -53 39 -72 64 -62 18 7 23 39 37 232 20 287 85 568 173 755 66 139 77 204 82 480 2 129 8 255 14 280 15 68 13 221 -9 465 -18 215 -20 225 -78 415 -83 274 -150 404 -369 709 l-168 235 -135 98 c-148 107 -237 195 -432 428 -67 80 -201 223 -297 318 -144 141 -227 211 -456 385 -154 118 -332 248 -395 290 l-115 77 -224 45 c-272 54 -346 57 -463 17z m216 -62 c133 -13 390 -57 429 -74 18 -7 99 -64 181 -125 82 -62 186 -139 232 -171 85 -60 308 -239 424 -339 132 -115 206 -190 320 -326 141 -169 325 -355 484 -490 252 -214 422 -432 587 -750 68 -133 86 -189 139 -450 39 -185 42 -217 51 -439 7 -212 6 -252 -10 -355 -14 -89 -17 -149 -13 -257 6 -191 -5 -246 -78 -395 -33 -67 -60 -129 -60 -138 0 -9 -13 -70 -29 -136 -16 -66 -37 -169 -47 -230 -9 -60 -20 -116 -24 -124 -4 -8 -11 38 -15 102 -6 97 -4 124 10 160 20 54 17 121 -7 125 -12 2 -31 -26 -72 -105 -75 -144 -165 -253 -381 -463 -484 -471 -708 -708 -806 -854 -80 -117 -82 -119 -74 -71 41 262 126 441 277 588 69 67 82 97 40 97 -33 0 -136 -75 -191 -138 -43 -49 -76 -73 -179 -130 -70 -39 -166 -84 -214 -101 -48 -17 -101 -37 -117 -45 -50 -26 -191 -75 -191 -66 0 17 218 229 275 267 33 22 107 64 165 93 110 55 122 64 112 88 -4 13 -23 14 -131 6 -69 -5 -247 -7 -396 -5 -316 3 -516 -8 -854 -49 -389 -48 -526 -69 -671 -105 -125 -32 -351 -104 -392 -126 -10 -5 -18 -8 -18 -5 0 11 201 138 264 166 48 22 66 35 64 47 -7 36 -54 33 -233 -12 -230 -59 -346 -97 -490 -160 -66 -30 -145 -63 -175 -75 -93 -36 -235 -115 -312 -173 -72 -54 -228 -208 -281 -277 l-27 -35 6 105 c21 365 115 670 303 984 74 125 85 156 52 156 -78 0 -238 -271 -329 -556 -27 -87 -58 -186 -67 -219 -9 -33 -29 -92 -45 -131 -16 -39 -51 -145 -78 -235 -44 -144 -56 -190 -78 -299 -10 -44 -133 276 -172 446 -34 143 -82 446 -92 577 -15 189 -12 595 4 729 30 236 113 481 218 645 33 50 85 105 178 189 142 127 170 163 145 184 -21 18 -106 -35 -208 -130 -110 -102 -249 -221 -254 -217 -6 7 76 205 146 351 124 260 291 482 454 604 50 38 117 85 147 104 157 100 574 285 659 292 41 3 71 20 71 38 0 6 7 24 14 41 15 32 54 193 82 342 27 137 71 315 111 444 l38 123 55 -6 c108 -13 103 -6 60 -99 -127 -273 -157 -512 -95 -752 72 -277 198 -398 495 -475 142 -37 246 -45 421 -32 106 8 165 18 265 47 144 41 182 58 272 122 74 54 133 132 197 264 48 100 74 203 97 382 12 97 7 157 -28 328 l-6 25 74 -8 c40 -5 112 -9 160 -10 104 -1 122 8 115 61 -7 57 -56 281 -63 293 -15 24 -83 39 -221 48 -82 6 -229 17 -328 25 -325 27 -307 35 -280 -116 21 -124 25 -357 6 -444 -35 -166 -73 -248 -153 -331 -79 -83 -153 -117 -264 -122 -91 -4 -140 13 -202 72 -66 61 -77 96 -77 236 0 111 3 134 29 210 27 81 130 290 203 412 47 78 43 107 -17 130 -25 9 -67 17 -95 18 -69 1 -463 55 -472 64 -10 10 167 353 255 496 97 159 162 249 300 422 122 154 127 159 205 198 89 44 82 43 221 30z m-815 -1280 c129 -16 236 -31 237 -33 2 -2 -20 -41 -47 -87 -123 -204 -184 -352 -205 -494 -23 -158 0 -251 87 -350 52 -59 175 -121 285 -143 75 -16 86 -16 164 0 46 9 113 31 149 48 78 38 173 130 218 210 60 105 113 328 113 473 0 74 -16 237 -26 270 -6 18 -2 19 92 13 194 -13 469 -39 475 -46 7 -7 39 -139 39 -161 0 -14 -16 -14 -137 -3 -76 7 -149 14 -162 17 -45 8 -71 -10 -71 -48 0 -19 5 -47 11 -63 21 -56 49 -225 49 -302 0 -234 -175 -571 -357 -688 -113 -72 -143 -78 -393 -78 -204 0 -233 2 -310 23 -47 13 -117 39 -156 58 -70 33 -93 55 -163 158 -8 12 -25 33 -38 47 -17 18 -28 50 -39 115 -8 49 -22 116 -31 149 -37 143 15 382 132 615 21 41 35 84 35 105 0 31 -4 38 -32 49 -18 8 -86 22 -150 32 -65 10 -118 21 -118 26 0 5 14 35 30 68 27 54 32 59 58 55 15 -3 132 -19 261 -35z"
       id="path2" />
  </g>
</svg>
