<?xml version="1.0" encoding="UTF-8"?>
<svg xmlns="http://www.w3.org/2000/svg" xmlns:xlink="http://www.w3.org/1999/xlink" width="170.76pt" height="71.32pt" viewBox="0 0 170.76 71.32" version="1.1">
<defs>
<clipPath id="clip1">
  <path d="M 145 0 L 170.761719 0 L 170.761719 71.320313 L 145 71.320313 Z M 145 0 "/>
</clipPath>
<clipPath id="clip2">
  <path d="M 0 0 L 26 0 L 26 71.320313 L 0 71.320313 Z M 0 0 "/>
</clipPath>
</defs>
<g id="surface1">
<path style=" stroke:none;fill-rule:nonzero;fill:rgb(100%,100%,100%);fill-opacity:1;" d="M 54.5625 32.203125 L 72.464844 32.203125 C 72.464844 28.902344 71.664063 26.304688 70.164063 24.503906 C 68.664063 22.703125 66.5625 21.804688 63.863281 21.804688 C 61.363281 21.804688 59.265625 22.703125 57.464844 24.402344 C 55.863281 26.101563 54.863281 28.703125 54.5625 32.203125 M 65.464844 57.703125 C 58.863281 57.703125 53.765625 55.804688 50.0625 52.003906 C 46.363281 48.203125 44.5625 43.003906 44.5625 36.203125 C 44.5625 29.703125 46.265625 24.503906 49.765625 20.601563 C 53.265625 16.703125 57.964844 14.804688 63.964844 14.804688 C 69.664063 14.804688 73.964844 16.601563 77.164063 20.101563 C 80.265625 23.601563 81.863281 28.304688 81.863281 34.203125 L 81.863281 38.402344 L 54.464844 38.402344 C 54.5625 42.203125 55.664063 45.203125 57.664063 47.304688 C 59.664063 49.402344 62.464844 50.503906 65.964844 50.503906 C 70.464844 50.503906 74.765625 49.304688 78.863281 47.003906 L 80.265625 54.003906 C 76.0625 56.402344 71.164063 57.703125 65.464844 57.703125 "/>
<path style=" stroke:none;fill-rule:nonzero;fill:rgb(100%,100%,100%);fill-opacity:1;" d="M 98.0625 57.605469 C 91.960938 57.605469 87.164063 56.605469 83.5625 54.503906 L 84.5625 47.105469 C 86.164063 48.003906 88.265625 48.804688 90.863281 49.503906 C 93.363281 50.203125 95.765625 50.605469 97.863281 50.605469 C 100.0625 50.605469 101.765625 50.203125 102.964844 49.402344 C 104.164063 48.605469 104.765625 47.402344 104.765625 45.804688 C 104.765625 44.402344 104.164063 43.304688 103.0625 42.402344 C 101.964844 41.503906 99.765625 40.605469 96.5625 39.304688 C 95.460938 38.902344 94.765625 38.605469 94.460938 38.503906 C 90.664063 37.003906 87.960938 35.402344 86.265625 33.605469 C 84.5625 31.804688 83.765625 29.304688 83.765625 26.304688 C 83.765625 22.605469 85.164063 19.703125 87.863281 17.703125 C 90.5625 15.703125 94.363281 14.703125 99.164063 14.703125 C 104.363281 14.703125 108.964844 15.703125 112.964844 17.703125 L 110.363281 24.503906 C 106.464844 22.703125 102.765625 21.804688 99.164063 21.804688 C 97.164063 21.804688 95.664063 22.105469 94.5625 22.804688 C 93.460938 23.503906 92.863281 24.503906 92.863281 25.804688 C 92.863281 27.105469 93.363281 28.105469 94.460938 28.804688 C 95.5625 29.503906 97.664063 30.402344 100.765625 31.605469 C 100.863281 31.605469 101.164063 31.703125 101.765625 31.902344 C 102.363281 32.105469 102.765625 32.304688 103.0625 32.402344 C 106.863281 33.804688 109.5625 35.402344 111.363281 37.304688 C 113.164063 39.203125 114.0625 41.703125 114.0625 44.804688 C 114.0625 48.902344 112.664063 52.105469 109.863281 54.304688 C 107.0625 56.503906 103.164063 57.605469 98.0625 57.605469 "/>
<path style=" stroke:none;fill-rule:nonzero;fill:rgb(100%,100%,100%);fill-opacity:1;" d="M 130.164063 57.605469 C 124.0625 57.605469 119.265625 56.605469 115.664063 54.503906 L 116.664063 47.105469 C 118.265625 48.003906 120.363281 48.804688 122.964844 49.503906 C 125.464844 50.203125 127.863281 50.605469 129.964844 50.605469 C 132.164063 50.605469 133.863281 50.203125 135.0625 49.402344 C 136.265625 48.605469 136.863281 47.402344 136.863281 45.804688 C 136.863281 44.402344 136.265625 43.304688 135.164063 42.402344 C 134.0625 41.503906 131.863281 40.605469 128.664063 39.304688 C 127.5625 38.902344 126.863281 38.605469 126.5625 38.503906 C 122.765625 37.003906 120.0625 35.402344 118.363281 33.605469 C 116.664063 31.804688 115.863281 29.304688 115.863281 26.304688 C 115.863281 22.605469 117.265625 19.703125 119.964844 17.703125 C 122.664063 15.703125 126.464844 14.703125 131.265625 14.703125 C 136.464844 14.703125 141.0625 15.703125 145.0625 17.703125 L 142.664063 24.503906 C 138.765625 22.703125 135.0625 21.804688 131.464844 21.804688 C 129.464844 21.804688 127.964844 22.105469 126.863281 22.804688 C 125.765625 23.503906 125.164063 24.503906 125.164063 25.804688 C 125.164063 27.105469 125.664063 28.105469 126.765625 28.804688 C 127.863281 29.503906 129.964844 30.402344 133.0625 31.605469 C 133.164063 31.605469 133.464844 31.703125 134.0625 31.902344 C 134.5625 32.105469 135.0625 32.304688 135.363281 32.402344 C 139.164063 33.804688 141.863281 35.402344 143.664063 37.304688 C 145.464844 39.203125 146.363281 41.703125 146.363281 44.804688 C 146.363281 48.902344 144.964844 52.105469 142.164063 54.304688 C 139.164063 56.503906 135.164063 57.605469 130.164063 57.605469 "/>
<g clip-path="url(#clip1)" clip-rule="nonzero">
<path style=" stroke:none;fill-rule:nonzero;fill:rgb(100%,100%,100%);fill-opacity:1;" d="M 145.164063 71.320313 L 145.164063 63.394531 C 147.964844 63.394531 149.765625 62.886719 150.664063 61.972656 C 151.5625 61.058594 151.964844 59.230469 151.964844 56.488281 L 151.964844 45.71875 C 151.964844 42.976563 152.664063 40.84375 153.964844 39.320313 C 155.265625 37.796875 157.363281 36.578125 160.265625 35.761719 C 157.464844 34.847656 155.363281 33.628906 154.0625 32.003906 C 152.765625 30.378906 152.0625 28.246094 152.0625 25.605469 L 152.0625 14.835938 C 152.0625 12.195313 151.664063 10.367188 150.765625 9.453125 C 149.863281 8.539063 148.0625 8.027344 145.265625 8.027344 L 145.265625 0.00390625 C 148.164063 0.00390625 150.664063 0.207031 152.664063 0.511719 C 154.664063 0.816406 156.363281 1.425781 157.765625 2.339844 C 159.164063 3.253906 160.265625 4.472656 160.964844 5.996094 C 161.664063 7.519531 161.964844 9.453125 161.964844 11.890625 L 161.964844 23.167969 C 161.964844 26.316406 162.5625 28.550781 163.765625 29.667969 C 164.964844 30.886719 167.265625 31.496094 170.765625 31.496094 L 170.765625 40.03125 C 167.363281 40.03125 164.964844 40.640625 163.765625 41.859375 C 162.5625 43.078125 161.964844 45.3125 161.964844 48.5625 L 161.964844 59.941406 C 161.964844 64.308594 160.664063 67.359375 158.0625 68.984375 C 155.363281 70.507813 151.0625 71.320313 145.164063 71.320313 "/>
</g>
<g clip-path="url(#clip2)" clip-rule="nonzero">
<path style=" stroke:none;fill-rule:nonzero;fill:rgb(100%,100%,100%);fill-opacity:1;" d="M 12.699219 68.984375 C 10.101563 67.359375 8.800781 64.308594 8.800781 59.941406 L 8.800781 48.5625 C 8.800781 45.3125 8.199219 43.078125 7 41.859375 C 5.800781 40.640625 3.398438 40.03125 0 40.03125 L 0 31.496094 C 3.5 31.496094 5.800781 30.886719 7 29.667969 C 8.199219 28.550781 8.800781 26.316406 8.800781 23.167969 L 8.800781 11.890625 C 8.800781 9.453125 9.101563 7.523438 9.800781 5.996094 C 10.5 4.472656 11.601563 3.253906 13 2.339844 C 14.398438 1.425781 16.101563 0.816406 18.101563 0.511719 C 20.101563 0.207031 22.964844 0.00390625 25.863281 0.00390625 L 25.863281 7.976563 C 23.0625 7.976563 20.898438 8.539063 20 9.453125 C 19.101563 10.367188 18.699219 12.195313 18.699219 14.835938 L 18.699219 25.605469 C 18.699219 28.246094 18 30.378906 16.699219 32.003906 C 15.398438 33.628906 13.300781 34.847656 10.5 35.761719 C 13.398438 36.578125 15.5 37.796875 16.800781 39.320313 C 18.101563 40.84375 18.800781 42.976563 18.800781 45.71875 L 18.800781 56.488281 C 18.800781 59.230469 19.199219 61.058594 20.101563 61.972656 C 21 62.886719 22.800781 63.394531 25.601563 63.394531 L 25.601563 71.320313 C 19.699219 71.320313 15.398438 70.507813 12.699219 68.984375 "/>
</g>
<path style=" stroke:none;fill-rule:nonzero;fill:rgb(100%,100%,100%);fill-opacity:1;" d="M 39.859375 57.449219 C 37.046875 57.449219 34.710938 57.117188 32.859375 56.460938 C 31.003906 55.800781 29.542969 54.75 28.472656 53.304688 C 27.402344 51.863281 26.65625 50.144531 26.234375 48.152344 C 25.8125 46.164063 25.601563 43.6875 25.601563 40.726563 L 25.601563 0.00390625 L 35.378906 0.117188 L 35.378906 40.539063 C 35.378906 44.222656 35.816406 46.71875 36.683594 48.023438 C 37.554688 49.328125 39.25 49.980469 41.761719 49.980469 C 43.003906 49.980469 44.585938 49.84375 46.503906 49.574219 L 46.761719 56.550781 C 46.738281 56.550781 46.433594 56.613281 45.847656 56.738281 C 45.265625 56.863281 44.703125 56.96875 44.167969 57.054688 C 43.632813 57.140625 42.957031 57.230469 42.132813 57.316406 C 41.316406 57.40625 40.554688 57.449219 39.859375 57.449219 "/>
</g>
</svg>
