<?xml version="1.0" standalone="no"?>
<!DOCTYPE svg PUBLIC "-//W3C//DTD SVG 20010904//EN"
 "http://www.w3.org/TR/2001/REC-SVG-20010904/DTD/svg10.dtd">
<svg version="1.0" xmlns="http://www.w3.org/2000/svg"
 width="187.000000pt" height="187.000000pt" viewBox="0 0 187.000000 187.000000"
 preserveAspectRatio="xMidYMid meet">
<metadata>
Created by potrace 1.11, written by Peter Selinger 2001-2013
</metadata>
<g transform="translate(0.000000,187.000000) scale(0.100000,-0.100000)"
fill="#000000" stroke="none">
<path d="M904 1784 c-225 -158 -349 -260 -529 -434 -169 -164 -248 -297 -290
-483 -68 -306 75 -659 317 -780 67 -33 187 -65 287 -76 416 -44 879 197 1059
554 77 151 76 340 -3 497 -81 162 -212 275 -362 310 -29 7 -53 15 -53 18 0 3
88 75 194 160 107 85 193 156 192 157 -1 1 -63 5 -137 7 -149 5 -164 7 -300
41 -106 26 -147 43 -198 80 -19 14 -42 25 -51 25 -9 0 -66 -34 -126 -76z m135
-260 c119 -48 222 -90 229 -93 12 -7 -32 -42 -360 -294 -48 -37 -89 -67 -92
-67 -3 0 -6 122 -6 270 0 149 3 270 6 270 4 0 104 -39 223 -86z m-525 -606
c-1 -383 -2 -426 -18 -457 l-18 -34 -30 53 c-34 60 -75 164 -83 212 -4 18 -10
49 -14 68 -17 79 -1 259 33 366 21 65 114 227 126 219 3 -2 5 -194 4 -427z
m771 139 c110 -30 207 -96 249 -171 36 -63 39 -89 13 -113 -51 -47 -156 -84
-247 -88 -77 -4 -206 34 -262 77 l-35 27 -1 130 0 130 36 15 c43 19 165 15
247 -7z m-355 -99 c3 -241 0 -851 -3 -854 -2 -2 -30 3 -63 11 -95 24 -196 81
-260 145 -86 87 -86 86 -23 139 30 25 86 79 125 119 93 95 106 131 110 312 1
74 6 136 11 138 4 1 26 11 48 21 22 11 43 20 48 20 4 1 7 -23 7 -51z m655
-326 c-6 -75 -27 -158 -47 -185 -13 -17 -16 -17 -70 2 -129 44 -289 49 -418
11 -19 -5 -38 -10 -42 -10 -4 0 -7 52 -7 116 1 104 2 115 17 111 9 -3 51 -17
92 -32 143 -50 261 -42 400 29 36 18 68 31 72 29 5 -2 5 -34 3 -71z m-290
-186 c62 -4 169 -38 194 -61 9 -9 11 -23 6 -44 -5 -23 -25 -44 -80 -86 -125
-94 -268 -151 -375 -150 l-35 0 -2 131 -2 131 79 37 c84 40 129 55 145 50 6
-2 37 -5 70 -8z"/>
</g>
</svg>
